/* XPM */
static char *result[] = {
/* columns rows colors chars-per-pixel */
"64 64 4 1 ",
"  c #EE8E2E",
". c #FACB3E",
"X c #FDF7ED",
"o c None",
/* pixels */
"oooooooooooooooooooooooooooooooooooooooooooooooooooooooooooooooo",
"oooooooooooooooooooooooooooooooooooooooooooooooooooooooooooooooo",
"oooooooooooooooooooooooooooooooooooooooooooooooooooooooooooooooo",
"oooooooooooooooooooooooooooooooooooooooooooooooooooooooooooooooo",
"oooooooooooooooooooooooooooooooooooooooooooooooooooooooooooooooo",
"oooooooooooooooooooooooooooooooooooooooooooooooooooooooooooooooo",
"oooooooooooooooooooooooooooooooooooooooooooooooooooooooooooooooo",
"oooooooooooooooooooooooooooooooooooooooooooooooooooooooooooooooo",
"oooooooooooooooooooooooooooooooooooooooooooooooooooooooooooooooo",
"oooooooooooooooooooooooooooooooooooooooooooooooooooooooooooooooo",
"oooooooooooooooooooooooooooooooooooooooooooooooooooooooooooooooo",
"ooooooooooooooooooooooooooo     XXXXXXoooooooooooooooooooooooooo",
"ooooooooooooooooooooooooooo     XXXXXXoooooooooooooooooooooooooo",
"ooooooooooooooooooooooooooo     XXXXXXoooooooooooooooooooooooooo",
"ooooooooooooooooooooooooooo     XXXXXXoooooooooooooooooooooooooo",
"ooooooooooooooooooooooooooo     XXXXXXoooooooooooooooooooooooooo",
"ooooooooooooooooooooooooooo     XXXXXXoooooooooooooooooooooooooo",
"oooooooooooooooooooooo     ...........XXXXXooooooooooooooooooooo",
"oooooooooooooooooooooo     ...........XXXXXooooooooooooooooooooo",
"oooooooooooooooooooooo     ...........XXXXXooooooooooooooooooooo",
"oooooooooooooooooooooo     ...........XXXXXooooooooooooooooooooo",
"oooooooooooooooooooooo     ...........XXXXXooooooooooooooooooooo",
"oooooooooooooooooooooo     ...........XXXXXooooooooooooooooooooo",
"ooooooooooooooooo     ...........   .......XXXXXoooooooooooooooo",
"ooooooooooooooooo     ...........   .......XXXXXoooooooooooooooo",
"ooooooooooooooooo     ........         ....XXXXXoooooooooooooooo",
"ooooooooooooooooo     ........         ....XXXXXoooooooooooooooo",
"ooooooooooooooooo     ...........   .......XXXXXoooooooooooooooo",
"ooooooooooooooooo     ...........   .......XXXXXoooooooooooooooo",
"ooooooooooooooooo     .....................XXXXXoooooooooooooooo",
"ooooooooooooooooo     .....................XXXXXoooooooooooooooo",
"ooooooooooooooooo     .....................XXXXXoooooooooooooooo",
"ooooooooooooooooo     .....................XXXXXoooooooooooooooo",
"ooooooooooooooooo     .....................XXXXXoooooooooooooooo",
"ooooooooooooooooo     ......   ............XXXXXoooooooooooooooo",
"ooooooooooooooooo     ......   ............XXXXXoooooooooooooooo",
"ooooooooooooooooo     ...         .........XXXXXoooooooooooooooo",
"ooooooooooooooooo     ...         .........XXXXXoooooooooooooooo",
"ooooooooooooooooo     ......   ............XXXXXoooooooooooooooo",
"ooooooooooooooooo     ......   ............XXXXXoooooooooooooooo",
"ooooooooooooooooo     .....................XXXXXoooooooooooooooo",
"oooooooooooooooooooooo     ...........XXXXXooooooooooooooooooooo",
"oooooooooooooooooooooo     ...........XXXXXooooooooooooooooooooo",
"oooooooooooooooooooooo     ...........XXXXXooooooooooooooooooooo",
"oooooooooooooooooooooo     ...........XXXXXooooooooooooooooooooo",
"oooooooooooooooooooooo     ...........XXXXXooooooooooooooooooooo",
"oooooooooooooooooooooo     ...........XXXXXooooooooooooooooooooo",
"ooooooooooooooooooooooooooo     XXXXXXoooooooooooooooooooooooooo",
"ooooooooooooooooooooooooooo     XXXXXXoooooooooooooooooooooooooo",
"ooooooooooooooooooooooooooo     XXXXXXoooooooooooooooooooooooooo",
"ooooooooooooooooooooooooooo     XXXXXXoooooooooooooooooooooooooo",
"ooooooooooooooooooooooooooo     XXXXXXoooooooooooooooooooooooooo",
"ooooooooooooooooooooooooooo     XXXXXXoooooooooooooooooooooooooo",
"oooooooooooooooooooooooooooooooooooooooooooooooooooooooooooooooo",
"oooooooooooooooooooooooooooooooooooooooooooooooooooooooooooooooo",
"oooooooooooooooooooooooooooooooooooooooooooooooooooooooooooooooo",
"oooooooooooooooooooooooooooooooooooooooooooooooooooooooooooooooo",
"oooooooooooooooooooooooooooooooooooooooooooooooooooooooooooooooo",
"oooooooooooooooooooooooooooooooooooooooooooooooooooooooooooooooo",
"oooooooooooooooooooooooooooooooooooooooooooooooooooooooooooooooo",
"oooooooooooooooooooooooooooooooooooooooooooooooooooooooooooooooo",
"oooooooooooooooooooooooooooooooooooooooooooooooooooooooooooooooo",
"oooooooooooooooooooooooooooooooooooooooooooooooooooooooooooooooo",
"oooooooooooooooooooooooooooooooooooooooooooooooooooooooooooooooo"
};