/* XPM */
static char *_41fb6d8f4aa40718ed52c97486ba56fpsWDv7mY3NZ8T6rK[] = {
/* columns rows colors chars-per-pixel */
"64 64 19 1 ",
"  c None",
". c black",
"X c #1D1D1D",
"o c #251710",
"O c #002F00",
"+ c #3F271B",
"@ c #2C2C2C",
"# c #005B00",
"$ c gray42",
"% c gray50",
"& c #880015",
"* c #B9001C",
"= c #FF062C",
"- c #ED1C24",
"; c #815136",
": c #B97A57",
"> c #009D00",
", c #C3C3C3",
"< c white",
/* pixels */
"                                                                ",
"                                                                ",
"                                                                ",
"                                                                ",
"                                                                ",
"                                                                ",
"                                  .....                         ",
"                                ...OOO...                       ",
"                               ..>###OOO.                       ",
"                            ...>>######O..                      ",
"                            .>>OOOOOOOO#O..                     ",
"                            .>-@O.OO@-OO#O.                     ",
"                        .....>##.##OOOO#.O.                     ",
"                        ..<..>##.######.<.O.                    ",
"                         ..<<.###.####.<<<...                   ",
"                           .<<..######.<<<...                   ",
"                         ...<<<.OOOOOO.<<.##...                 ",
"                         .@@....OOOOOOO...#..XX.                ",
"                     .....$$.........OOO.#..@XX.                ",
"                   .....#....===***..####..$@@X..               ",
"                  .>>>>>#..===*******..##.$$$.......            ",
"                  .>>>###.==*********&&...$$.O.OOOO..           ",
"                 ..>>###..=**********&&&&...OOOOOOOO..          ",
"                 .>>###..*******&&&&&&&&&&.#OOOOOOOOO.          ",
"                ..###OO.******&&&&&&&**&&..###OOOOOOO..         ",
"                .####OO..***&.....&&&**&&.########OOOO.         ",
"                ..#OOOOO.&&&.===*...&&&&&.#########OOO.         ",
"                 ...OO......===****...&&&.#########OOO.....     ",
"                ..>.OO.======******...&&..#..#######...*==.     ",
"                .>>>#.=======*******.....###..###......**=..    ",
"                .>>#.====***********&...#####....XXXXXX..==.    ",
"               .>>##.=*=***=**=****&&.&.######..%%%%%%%XX.*..   ",
"               .>>##.*************&&&...#####.X%%......%XX.*.   ",
"               .>>##.**********&&&&&*&..###..X%...:;;;..%XX..   ",
"                .>##.&&******&&&&&&&&&&..#...X..;;::;;;.%XX..   ",
"                ..##.&&&&&&&&&&....&&&&&.#..X..;;;;:;;;..%XX.   ",
"                ..##..&&.......XXX...&&&&...%.;:;;;::;;;.%%X.   ",
"               ..###.....XXXXXXXXX@XX...&..X..;:;;;;:;;;:.%%X.  ",
"               .##OOO..XXXXX@X@X@@@XXX.....%.;;;:;;;;..;;..%X.  ",
"              ..###OO.XXXX%%@X@@@@%X%X.%%.X%.;;;:;;......;..%.  ",
"    .         .#####..XX$X%%@X@@$@%X%X....X%.;;;::;.%%,,.;:..%. ",
"   .,.        .##.#...%X$X%.@XX@$@%X%XX##.X%.;;;;:..%,,,..:;.%. ",
"   .,,.       ....##.<.%$%%.@%@@$$%X%%%.#.X%.;;;;:.%%,,,,.;:.%. ",
"   .,,.      ..;;..#.<.%$%%.@%@%@$%XX%@.#.X%.:;;;;.%%%,,%.;:.%. ",
"    .,.   ...;;;.##..<..$%%.@%@%@$%XX%@...X%.:;;;;.@%%%%..;:.%. ",
"    .,,.  .;;;......<...@$%.@%@%@$%XX%@...X%.::;;;.@@%%..:;:.X. ",
"    .,,...;;..      ..;.@$%.@%@%@$%XX%@.;.X%.;:;;;..@@..;:;..X. ",
"    .,,.;;;.       ..;;.@$%.%%@%@$%XX%@.;.X%.;:;;;;.....;:;.%X. ",
"   ....;;..        ..;;.@$%@.%%%@$.%X%@...X%.;;:;;;:...;;:..%X. ",
"  ...;;;..         ...;.@$%@.%%%@$.%X%@...X%.;;:;;;;:;;;;;..%X  ",
" .;;;;;.            ....@$%@.%%%@@.%X%@.+..%..;::;;;::;;;;..%.  ",
" .;;;...             .+.@$%@@@%%@@%%X%@.++.X%..;:;;;;:;;;;.%X.  ",
" .;;.,,.             .+.@$%@@@%%@@%%%@@.+++.X%.;:;;;;:;;;;.%.   ",
"  ...,,,.            .+.@$$@@@@%@@$%%@@.+++.X%%.:;;;;::;;..X.   ",
"     .,,.            .+.@@$@@@@%@@@$%@@.++++.X%..;;;;;:;..%.    ",
"      .,,.           .+.............@@@.++++.XX%.;;;;;:..%%.    ",
"       .,,.         ..+++oo.      ....@.+++++.XX..;;;...XX.     ",
"        .,,..     ...++++oo.         ...++++++..X.....%X..      ",
"         ..       .++++++oo.        ...+++++++oo..%%%%..        ",
"                 ..++++oooo.       ..+++++++++oooo....          ",
"               ...+++oooooo.       .+++++++++oooo..             ",
"               .++ooooo.....       .++oooo+ooooo..              ",
"                .......             ....ooooo....               ",
"                                       ......                   "
};
