/* XPM */
static char *e65adc1a995b4f16a0f95b8c70c49d91Dd9T9a8JyzeHYBYm[] = {
/* columns rows colors chars-per-pixel */
"64 64 114 2 ",
"   c None",
".  c #0C0C0C",
"X  c gray5",
"o  c #190300",
"O  c #1B0300",
"+  c #241000",
"@  c #201400",
"#  c #271400",
"$  c #2E1700",
"%  c #281900",
"&  c #301400",
"*  c #3E1F00",
"=  c gray15",
"-  c gray23",
";  c #4F2800",
":  c #723300",
">  c #793600",
",  c #7D3600",
"<  c #7C3700",
"1  c #773900",
"2  c #783800",
"3  c #7F3B00",
"4  c #9A0005",
"5  c #823B00",
"6  c #813F00",
"7  c #913F00",
"8  c #923F00",
"9  c #FF2916",
"0  c #874000",
"q  c #864400",
"w  c #894100",
"e  c #8B4200",
"r  c #8E4000",
"t  c #8C4200",
"y  c #8F4200",
"u  c #914000",
"i  c #924000",
"p  c #924200",
"a  c #914400",
"s  c #934500",
"d  c #944400",
"f  c #964500",
"g  c #974500",
"h  c #954600",
"j  c #994600",
"k  c #9B4700",
"l  c #9C4900",
"z  c #9F4900",
"x  c #9D4A00",
"c  c #9E4B00",
"v  c #A04800",
"b  c #A04B00",
"n  c #A24A00",
"m  c #A34C00",
"M  c #A24D00",
"N  c #A74C00",
"B  c #A64D00",
"V  c #A44E00",
"C  c #A64E00",
"Z  c #A84E00",
"A  c #AB4F00",
"S  c #AE4F00",
"D  c #AB5100",
"F  c #AB5200",
"G  c #AC5000",
"H  c #AE5000",
"J  c #AF5100",
"K  c #AD5200",
"L  c #AE5200",
"P  c #AC5400",
"I  c #B15000",
"U  c #B05100",
"Y  c #B15200",
"T  c #B75600",
"R  c #BA5600",
"E  c #BC5800",
"W  c #BF5900",
"Q  c #C35800",
"!  c #C05E00",
"~  c #E05E00",
"^  c #F65A00",
"/  c #D26200",
"(  c #D96600",
")  c #DA6700",
"_  c #E56A00",
"`  c #E26D00",
"'  c #F06C00",
"]  c #ED7200",
"[  c #F77200",
"{  c #F97600",
"}  c #FC7700",
"|  c #FE7800",
" . c #FF7B00",
".. c #FF8209",
"X. c #FF800B",
"o. c #FF810D",
"O. c #FF810E",
"+. c #FF8316",
"@. c #FF8618",
"#. c #FF871B",
"$. c #FF861C",
"%. c #FF981D",
"&. c #FF8B23",
"*. c #EEFF0C",
"=. c #FFE619",
"-. c #FF9650",
";. c #FFF172",
":. c #FFF272",
">. c gray52",
",. c #FFF99A",
"<. c #C5C5C5",
"1. c #C6C6C6",
"2. c #FFF0E4",
"3. c white",
/* pixels */
"                                                                                                                                ",
"                                                      ;.:.:.:.:.:.:.:.;.                                                        ",
"                                                  ;.:.:.. . . . . . . :.:.;.                                                    ",
"                                                ;.:.. . - - - - >.>.. . . :.;.                                                  ",
"                                            ;.:.:.. - - - - >.1.1.>.>.1.1.. :.;.                                                ",
"                                        ;.:.:.. . - - >.>.>.1.1.1.1.>.>.1.. . :.                                                ",
"                                        :.. . . - - >.. . . . . >.1.>.>.1.1.. :.                                                ",
"                                        ;.:.:.. . . . =.=.=.=.=.. >.>.>.1.1.. :.:.:.;.                                          ",
"                                ;.;.;.:.:.;.:.. . - - . . =.=.=.=.. . 1.1.1.. . . . :.;.                                        ",
"                              ;.;.. . . . :.. . - - - . =.. . = = =.=.. . 1.. . . . . :.                                        ",
"                            ;.;.. . =.=.. . . - - >.. =.. >.>.. = = = =.=.. . . . - . :.;.                                      ",
"                          ;.;.. =.*.*.*.=.. . - - >.. =.. >.1.1.. = = = . . . - - - - . :.                                      ",
"                        ;.:.. =.*.. . . *.=.. - >.>.. =.. 1.1.1.1.. = . . . - - >.>.>.. :.;.                                    ",
"                        ;.. . *.. . >.. *.*.. . >.>.>.. 1.1.1.1.. = . . . - >.>.>.>.>.>.. :.                                    ",
"                    ;.:.;.. =.. . 1.1.>.. *.=.. >.1.1.1.1.1.1.. = . . - - >.>.>.>.>.>.>.>.:.;.                                  ",
"                  ;.;.. . . . . . . . . . *.=.. . . . 1.1.1.. = . . - - >.>.1.1.. >.>.>.>.. :.                                  ",
"                ;.:.. *.*.. >.- - - - - . . *.. . >.. . . . . . . - - >.>.1.3.. . . 1.1.>.. :.;.                                ",
"                ;.. . *.. >.>.>.>.>.- - - . . =.. >.>.. 4 9 9 . - - - >.1.3.. . . . 1.1.1.. . :.                                ",
"                ;.. *.*.. 1.1.>.>.>.>.- - - . . . . >.>.. 4 . . - - >.1.3.. . Y $.. . 1.1.3.. ;.                                ",
"                ;.. *.. 1.1.1.1.1.>.>.>.>.- - . . . >.>.. 4 . - - - >.1.. . Y $.$.Y . 1.1.3.. ;.                                ",
"                :.. *.. 1.1.1.1.1.1.1.>.>.- - - . >.>.>.>.. . - - >.>.. . $.Y $.Y Y . 1.1.3.. ;.;.                              ",
"                ;.. *.. 1.1.1.1.1.1.1.1.>.>.- - . >.>.>.>.. - - >.1.1.. Y $.Y $.Y . . 1.1.3.. . :.                              ",
"                ;.. *.*.. . 1.1.1.1.1.. . . . . . >.>.>.. . - - >.1.. . $.$.$.$.Y . 1.1.3.. . . :.                              ",
"                ;.;.. *.*.*.. . . . . *.*.*.*.. . . . >.. . - - >.1.. Y $.Y $.Y Y . 1.3.. . . . :.;.                            ",
"                  ;.:.. . *.*.*.*.*.*.. . . . . 4 4 . . . - - >.1.. . $.$.Y $.Y Y . 1.3.: : . . . :.                            ",
"                    ;.:.:.. . . . . . . 4 4 4 4 4 . . . . - - >.. . $.$.Y $.$.Y Y . . . Y : . . . :.                            ",
"                        :.. >.>.1.. 9 9 4 4 4 4 . . 1.. . - >.>.. . $.Y Y $.Y Y Y . . Y Y : . . :.;.                            ",
"                        :.. . 1.1.. . 9 9 . . . . 1.>.. - - >.. . $.$.Y Y $.Y Y $.$.Y Y Y : : . :.                              ",
"                        :.. . . 1.1.. . . >.>.1.1.. . . - >.>.. Y $.Y Y $.$.Y Y $.Y Y Y #.: . . :.                              ",
"                        :.. >.1.. . 1.1.. . . . . . . . . >.. . $.Y Y Y $.Y Y Y $.Y Y L O.: . . :.                              ",
"                      ;.:.. . . . . . 1.1.>.>.. >.>.. . - >.. $.$.Y Y $.Y Y Y $.$.F F C | : . . :.                              ",
"                ;.:.:.:.. Y Y Y Y . . . . . . . >.1.. . - . Y $.Y Y $.$.Y Y Y $.L C v b ] : . :.;.                              ",
"            ;.:.;.. . . . . . . . Y Y . . >.- . >.1.. - >.. $.$.Y Y $.Y Y Y $.$.b l 7 / : : . . ;.                              ",
"          ;.:.. . - >.>.1.1.1.1.. . Y Y . >.- . . 1.. - >.. $.Y Y $.Y Y Y Y $.C f e ! Q : : . . :.                              ",
"          :.. - - - >.1.1.1.1.1.1.1.. . Y . . . . . - >.. . $.Y $.$.Y Y Y Y ..l 7 t E a : O . ;.;.                              ",
"          :.. - >.>.>.1.1.1.1.1.1.1.>.- . Y . . . . - >.. . $.Y $.Y . . Y +.[ f a E S : : . . ;.                                ",
"          :.. - >.>.1.1.1.1.1.1.1.>.- - - . . . . . - >.>.. Y Y . . 3.. #.O.b & * A 7 : O . ;.;.                                ",
"        ;.:.. . . 1.1.1.1.1.1.1.>.- - . . 4 . . . . >.>.>.. . . . 1.1.. $.S + # %.; . . . :.;.                                  ",
"        ;.. . - >.. . 1.1.1.>.>.>.- . . 4 4 4 . . - >.. >.>.>.1.1.. . $.$.Y O ' &.. . . . :.;.;.                                ",
"      ;.;.. - >.1.1.. . 1.1.>.>.. . . 4 4 4 4 . . - >.. . . >.. . . Y $.Y Y . ^ _ -.2.. . . . ;.;.                              ",
"    ;.:.. - >.1.1.1.1.1.. . . . . . 9 9 4 4 . . . - >.. . . . . Y Y Y $.Y Y . . 1.1.. . . 3.. . :.:.;.                          ",
"    :.. =.. >.1.1.1.1.1.1.>.- - . . 9 9 9 4 . . . >.>.. . . Y $.Y Y $.$.Y Y $.. . . . . ,.,.,.3.. . ;.;.;.                      ",
"    :.. . =.. . . 1.1.1.>.>.- - . . . . . 4 . . - >.>.>.. . . $.Y Y $.Y Y $.$.Y . . . 3.3.3.,.,.,.3.. . ;.;.                    ",
"    ;.:.. . =.=.*.. . . . . . . . - - - . . ;.. . . >.>.>.. . Y Y $.Y Y Y $.Y : : . . . 3.3.3.3.,.,.3.. . :.;.;.                ",
"      ;.:.:.. . . =.=.=.=.*.*.. - - - - >.. ;.. . . . . >.. . . $.$.Y Z O.+.Y : . . . :.. . 3.3.3.3.,.,.3.. . ;.;.              ",
"          ;.:.:.. . . . . . . - - - >.>.1.. ;.. . Y Y . >.>.. . $.Y L Z | L Y : . . ;.;.:.:.. . 3.3.3.3.,.,.3.. :.:.;.          ",
"          ;.:.. . . . . - - >.. - >.>.1.1.. . . . Y $.. . >.. . S C l _ C L . . . . ;.    ;.:.:.. . 3.3.3.,.,.3.. . :.:.;.      ",
"          :.. . - - - - >.>.>.. - >.1.1.. . . . Y Y $.Y . >.>.O v j ) } . . . . . ;.;.        ;.;.;.. . 3.3.3.,.,.3.. . :.:.;.  ",
"          :.. . - - - >.>.1.1.. . >.1.. . :.. . Y $.$.Y . >.. $ f a { . . >.3.. . :.              ;.;.:.. . 3.3.3.,.,.3.. . ;.  ",
"          :.:.. . . >.>.1.1.1.1.. . . :.:.. . . Y #.Y . . >.@ f 7 ` . . 1.1.. . :.;.                  ;.:.:.. . 3.3.3.,.,.. ;.;.",
"          :.. $.$.. . 1.1.1.1.1.>.. . :.:.. . Y $.$.Y . >.. # e Y | . 1.1.1.. . :.                        ;.:.:.. . 3.3.3.,.. ;.",
"        :.:.. $.$.Y Y . 1.1.1.>.>.. . :.. . . Y $.Y . . . L k 7 R . . 1.. . . :.;.                            ;.;.;.. . . 3.. :.",
"        :.. . $.Y Y Y . 1.1.1.>.. . :.:.. . Y Y $.Y . . L S s l e . % . . . . :.                                  ;.:.:.;.. . . ",
"        :.. $.$.Y Y : . 1.1.>.>.. :.;.:.. . Y $.Y Y L ..N a F q . . . . . . :.;.                                        ;.;.:.;.",
"      ;.:.. #.Y Y : : . >.>.>.. :.;.  :.. . Y $.Y Y #.) t C a , . . . : . . :.                                                  ",
"      :.. . Y Y : : . . >.>.. . :.    ;.;.. $.Y Y $.#.5 5 7 > > . : . . . :.;.                                                  ",
"    :.:.. $.$.Y : . :.. . . . :.;.      :.. $.Y Y $.L 0 l R 1 3 : . . . ;.:.;.                                                  ",
"  :.:.. $.$.Y : . :.:.:.:.:.:.:.        :.. . Y $.$.L k : : : : . . . . . . :.;.                                                ",
":.:.. $.$.Y Y : . :.                    :.. . $.$.Y : : : . . . . . . . . . . :.:.;.                                            ",
":.. . $.Y Y : : . :.:.:.:.              :.. . #.Y : : . . . . . . . . . . . . . . :.                                            ",
":.. $.$.Y Y : : . . . . :.:.            ;.:.. . . . . . . :.:.:.:.. . . . . . . :.;.                                            ",
":.. . $.Y : : : : : : : . :.              :.. . . . . ;.:.;.    ;.:.:.:.:.:.:.:.;.                                              ",
":.:.. . . . . : : : : . . :.              ;.:.:.:.;.;.;.                                                                        ",
"  :.:.:.:.:.. . . . . :.:.:.                                                                                                    "
};
